<svg width="61" height="63" viewBox="0 0 61 63" fill="none" xmlns="http://www.w3.org/2000/svg">
<mask id="mask0_223_13" style="mask-type:alpha" maskUnits="userSpaceOnUse" x="0" y="0" width="61" height="63">
<rect width="61" height="63" fill="#D9D9D9"/>
</mask>
<g mask="url(#mask0_223_13)">
<path d="M51.0875 44.4937C51.8077 44.8875 52.4431 44.8 52.9938 44.2313C53.5445 43.6625 53.6292 43.0063 53.2479 42.2625L49.5625 35.175L46.8938 42.2625L51.0875 44.4937ZM38.3792 42H41.4292L47.5292 26.3813C47.6563 26.0313 47.6245 25.7359 47.4339 25.4953C47.2432 25.2547 47.0208 25.0688 46.7667 24.9375L41.6834 22.8375C41.3021 22.7063 40.9314 22.75 40.5714 22.9688C40.2113 23.1875 39.9889 23.4937 39.9042 23.8875L38.3792 42ZM19.5709 42H22.6209L21.0959 23.8875C21.0111 23.4062 20.7887 23.0781 20.4287 22.9031C20.0686 22.7281 19.6979 22.7063 19.3167 22.8375L14.2334 24.9375C13.8945 25.0688 13.6509 25.2547 13.5026 25.4953C13.3544 25.7359 13.3438 26.0313 13.4709 26.3813L19.5709 42ZM9.91252 44.4937L14.1063 42.2625L11.4375 35.175L7.7521 42.2625C7.37085 43.0063 7.45558 43.6625 8.00627 44.2313C8.55696 44.8 9.19238 44.8875 9.91252 44.4937ZM27.7042 42H33.2959L35.2021 19.8187C35.2868 19.425 35.1915 19.0859 34.9162 18.8016C34.6408 18.5172 34.3125 18.375 33.9313 18.375H27.0688C26.7299 18.375 26.4228 18.5172 26.1474 18.8016C25.8721 19.0859 25.7556 19.425 25.7979 19.8187L27.7042 42ZM8.76877 49.875C6.9896 49.875 5.50696 49.1859 4.32085 47.8078C3.13474 46.4297 2.54169 44.8 2.54169 42.9188C2.54169 42.3938 2.61582 41.8797 2.76408 41.3766C2.91235 40.8734 3.09238 40.3812 3.30419 39.9L8.89585 28.875C8.3028 27.125 8.32398 25.3969 8.9594 23.6906C9.59481 21.9844 10.7174 20.7813 12.3271 20.0813L17.4104 17.9813C18.0035 17.7625 18.5965 17.6094 19.1896 17.5219C19.7827 17.4344 20.3757 17.4563 20.9688 17.5875C21.5618 16.3188 22.3879 15.2578 23.4469 14.4047C24.5059 13.5516 25.7132 13.125 27.0688 13.125H33.9313C35.2868 13.125 36.4941 13.5516 37.5531 14.4047C38.6122 15.2578 39.4382 16.3188 40.0313 17.5875C40.6243 17.5 41.2174 17.4891 41.8104 17.5547C42.4035 17.6203 42.9965 17.7625 43.5896 17.9813L48.6729 20.0813C50.3674 20.7813 51.5535 21.9844 52.2313 23.6906C52.909 25.3969 52.8667 27.0813 52.1042 28.7438L57.6959 39.7688C57.95 40.25 58.1406 40.7531 58.2677 41.2781C58.3948 41.8031 58.4584 42.35 58.4584 42.9188C58.4584 44.8875 57.8123 46.5391 56.5203 47.8734C55.2283 49.2078 53.6292 49.875 51.7229 49.875C51.257 49.875 50.791 49.8203 50.325 49.7109C49.859 49.6016 49.3931 49.4375 48.9271 49.2188L44.9875 47.25H15.8854L12.3271 49.2188C11.7764 49.525 11.1939 49.7109 10.5797 49.7766C9.96547 49.8422 9.36183 49.875 8.76877 49.875Z" fill="#FDFCFF"/>
</g>
</svg>
